<svg xmlns="http://www.w3.org/2000/svg" viewBox="0 0 113.68 93.24"><defs><style>.cls-1{fill:#9fc749;}.cls-2{fill:#fff;}</style></defs><g id="Layer_2" data-name="Layer 2"><g id="OBJECTS"><path class="cls-1" d="M97.63,58.69V42.13a9.36,9.36,0,0,0-9.36-9.36H24.76a9.36,9.36,0,0,0-9.36,9.36V58.69A23.79,23.79,0,0,0,39.19,82.48h4.63a13.38,13.38,0,0,1,7.59,2.36c7.29,5,21.25,11.72,38.86,6.53a.33.33,0,0,0-.06-.65c-3.56-.37-12.09-1.65-17.51-5.62a1.45,1.45,0,0,1,.84-2.62h.29A23.8,23.8,0,0,0,97.63,58.69Z"/><path class="cls-1" d="M3.34,28.75V38.2c0,7,6,12.68,13.34,12.68h0C24,50.88,30,45.21,30,38.2V28.75Z"/><path class="cls-2" d="M16.68,52.38C8.49,52.38,1.84,46,1.84,38.2v-11H31.52v11C31.52,46,24.86,52.38,16.68,52.38ZM4.84,30.25v8c0,6.17,5.31,11.18,11.84,11.18s11.84-5,11.84-11.18v-8Z"/><path class="cls-1" d="M30,28.75V38.2c0,7,6,12.68,13.34,12.68h0c7.36,0,13.34-5.67,13.34-12.68V28.75Z"/><path class="cls-2" d="M43.36,52.38c-8.19,0-14.84-6.36-14.84-14.18v-11H58.2v11C58.2,46,51.54,52.38,43.36,52.38ZM31.52,30.25v8c0,6.17,5.31,11.18,11.84,11.18s11.84-5,11.84-11.18v-8Z"/><path class="cls-1" d="M56.7,28.75V38.2c0,7,6,12.68,13.34,12.68h0c7.36,0,13.34-5.67,13.34-12.68V28.75Z"/><path class="cls-2" d="M70,52.38C61.85,52.38,55.2,46,55.2,38.2v-11H84.88v11C84.88,46,78.22,52.38,70,52.38ZM58.2,30.25v8c0,6.17,5.31,11.18,11.84,11.18s11.84-5,11.84-11.18v-8Z"/><path class="cls-1" d="M83.38,28.75V38.2c0,7,6,12.68,13.33,12.68h0c7.37,0,13.34-5.67,13.34-12.68V28.75Z"/><path class="cls-2" d="M96.71,52.38c-8.18,0-14.83-6.36-14.83-14.18v-11h29.67v11C111.55,46,104.9,52.38,96.71,52.38ZM84.88,30.25v8c0,6.17,5.31,11.18,11.83,11.18s11.84-5,11.84-11.18v-8Z"/><path class="cls-1" d="M23.44,6.09,3.34,28.75H30L41.28,1.5H33.66A13.69,13.69,0,0,0,23.44,6.09Z"/><path class="cls-2" d="M31,30.25H0L22.32,5.1A15.18,15.18,0,0,1,33.66,0h9.86Zm-24.35-3H29L39,3H33.66a12.15,12.15,0,0,0-9.09,4.09Z"/><polygon class="cls-1" points="55.66 1.5 56.7 28.75 83.38 28.75 70.44 1.5 55.66 1.5"/><path class="cls-2" d="M85.75,30.25H55.25L54.1,0H71.39Zm-27.61-3H81L69.49,3H57.22Z"/><polygon class="cls-1" points="41.28 1.5 30.02 28.75 56.7 28.75 55.66 1.5 41.28 1.5"/><path class="cls-2" d="M58.25,30.25H27.77L40.27,0H57.1Zm-26-3H55.14L54.21,3H42.28Z"/><path class="cls-1" d="M77.15,1.5H70.44L83.38,28.75h26.67L86.81,5.5A13.67,13.67,0,0,0,77.15,1.5Z"/><path class="cls-2" d="M113.68,30.25H82.43L68.07,0h9.08A15.07,15.07,0,0,1,87.87,4.44Zm-29.36-3h22.11L85.75,6.56A12.07,12.07,0,0,0,77.15,3H72.81Z"/><path class="cls-2" d="M41.41,61.77a5.85,5.85,0,1,1-5.85-5.84A5.85,5.85,0,0,1,41.41,61.77Z"/><path class="cls-2" d="M62.36,61.77a5.85,5.85,0,1,1-5.85-5.84A5.85,5.85,0,0,1,62.36,61.77Z"/><path class="cls-2" d="M83.31,61.77a5.85,5.85,0,1,1-5.84-5.84A5.84,5.84,0,0,1,83.31,61.77Z"/></g></g></svg>